PathFileType  4	(X/Y/Z) C:\Users\antoi\Documents\MyRepositories\mobilecap\ResultsAnalysis
DataRate	CameraRate	NumFrames	NumMarkers	Units	OrigDataRate	OrigDataStartFrame	OrigNumFrames
100.0	100.0	6	51	mm	100.0	1	1631
Frame#	Time	r_knee			r_shank_antsup			r_ankle			r_calc			r_5meta			r_toe			L_knee			L_shank_antsup			L_ankle			L_calc			L_5meta			L_toe			r_sh2			r_sh3			r_sh4			L_sh2			L_sh3			r_thigh1			r_thigh2			r_thigh3			r_thigh4			r_thigh5			L_thigh1			L_thigh2			L_thigh3			L_thigh4			r.ASIS			r.PSIS			L.ASIS			L.PSIS			C7			R_Shoulder			L_Shoulder			R_Sternum			L_Sternum			R_humerus			R_elbow_med			R_elbow_lat			R_forearm			R_wrist_radius			R_wrist_ulna			L_humerus			L_elbow_med			L_elbow_lat			L_forearm			L_wrist_radius			L_wrist_ulna			R_HJC			L_HJC			R_HJC_reg			L_HJC_reg			
		X1	Y1	Z1	X2	Y2	Z2	X3	Y3	Z3	X4	Y4	Z4	X5	Y5	Z5	X6	Y6	Z6	X7	Y7	Z7	X8	Y8	Z8	X9	Y9	Z9	X10	Y10	Z10	X11	Y11	Z11	X12	Y12	Z12	X13	Y13	Z13	X14	Y14	Z14	X15	Y15	Z15	X16	Y16	Z16	X17	Y17	Z17	X18	Y18	Z18	X19	Y19	Z19	X20	Y20	Z20	X21	Y21	Z21	X22	Y22	Z22	X23	Y23	Z23	X24	Y24	Z24	X25	Y25	Z25	X26	Y26	Z26	X27	Y27	Z27	X28	Y28	Z28	X29	Y29	Z29	X30	Y30	Z30	X31	Y31	Z31	X32	Y32	Z32	X33	Y33	Z33	X34	Y34	Z34	X35	Y35	Z35	X36	Y36	Z36	X37	Y37	Z37	X38	Y38	Z38	X39	Y39	Z39	X40	Y40	Z40	X41	Y41	Z41	X42	Y42	Z42	X43	Y43	Z43	X44	Y44	Z44	X45	Y45	Z45	X46	Y46	Z46	X47	Y47	Z47	X48	Y48	Z48	X49	Y49	Z49	X50	Y50	Z50	X51	Y51	Z51	

1	0.00000000	-202.19108	501.63838	-452.02419	-172.50782	432.15460	-435.52985	-313.47508	106.40007	-453.56292	-376.35714	49.28051	-499.18785	-174.62224	45.64150	-415.46904	-140.77797	72.64896	-474.17352	-196.12955	498.00697	-804.31684	-173.84126	396.01330	-807.21040	-314.42686	101.56378	-764.39771	-381.24591	49.80129	-724.23180	-165.93185	45.94690	-807.52362	-139.17151	75.37565	-745.55195	-203.30534	323.65719	-430.46412	-245.12644	451.85085	-424.81962	-283.04988	342.53396	-421.62910	-257.81415	425.59382	-823.04968	-287.93317	309.28948	-812.52069	-502.82632	578.43088	-445.80801	-395.25021	591.88094	-452.45996	-363.12034	540.76550	-416.15852	-488.11058	463.53303	-434.65405	-371.18883	484.85388	-427.60716	-497.15694	571.75058	-808.91823	-360.70821	587.44223	-811.48069	-489.45436	456.14888	-822.70606	-352.69957	480.56435	-832.19511	-588.92410	608.62649	-504.19066	-777.64349	554.04958	-584.72305	-585.71851	605.25255	-757.65219	-773.80223	549.06365	-689.00342	-790.60193	1082.31540	-636.17820	-719.91286	1044.38009	-454.54278	-709.20206	1063.20820	-796.59256	-633.80382	1030.34986	-595.92201	-630.32084	1028.93230	-650.95184	-725.85585	774.53711	-360.81063	-747.95880	678.21891	-437.20828	-735.86486	683.74400	-347.46051	-589.28641	617.40258	-364.74046	-491.75576	575.50109	-395.18639	-513.65680	545.42580	-371.16536	-709.13187	807.04786	-897.88752	-762.08244	705.35226	-843.23768	-729.21168	718.17879	-913.06357	-584.26798	620.12436	-888.89193	-500.51491	585.29841	-862.73562	-519.94520	551.63036	-863.13880	-627.77861	499.70549	-508.68715	-620.11253	497.60396	-738.91798	-623.57424	512.68982	-536.62857	-617.42231	504.70467	-703.63746	
2	0.01000000	-202.15078	501.83061	-452.09043	-172.62300	432.06649	-435.74644	-314.18724	106.63599	-453.66631	-376.65607	48.98392	-499.26205	-175.05378	46.92731	-415.15185	-141.37721	74.06404	-474.09728	-196.20721	497.99585	-804.25027	-173.95598	396.16286	-807.34457	-314.68354	101.63132	-764.36111	-381.35028	49.66133	-724.21883	-165.99330	46.31784	-807.44978	-139.35109	76.04049	-745.38046	-203.50116	323.84621	-430.42438	-245.08952	451.97432	-424.83600	-283.14990	342.74000	-421.65684	-257.84809	425.60991	-823.06996	-288.04367	309.29570	-812.43668	-502.70936	578.82777	-446.09976	-395.31550	591.98502	-452.66467	-363.08900	541.06999	-416.18701	-488.33809	463.98552	-434.44507	-369.96895	485.82314	-425.79991	-497.20595	571.80595	-808.87592	-360.75711	587.50185	-811.40769	-489.52553	456.18583	-822.75395	-352.74426	480.64624	-832.20157	-589.12076	608.64071	-504.31540	-777.68464	554.10002	-584.77458	-585.90103	605.27072	-757.72496	-773.81144	548.99176	-688.90512	-790.32666	1082.22393	-635.76794	-719.73387	1044.46047	-454.20257	-708.74913	1063.33373	-796.14700	-633.48448	1030.62338	-595.59847	-629.96032	1029.19138	-650.63944	-725.81262	774.49839	-360.73630	-748.04589	678.12338	-437.24249	-735.88198	683.73096	-347.50953	-589.33064	617.40680	-364.85217	-491.77960	575.50739	-395.33808	-513.63196	545.42624	-371.27131	-709.19425	807.24148	-897.74937	-762.20021	705.73059	-842.96956	-729.32266	718.35858	-912.90376	-584.41363	620.39308	-888.89322	-500.77469	585.50362	-862.73272	-520.13273	551.88563	-863.08463	-627.82892	499.75953	-508.71672	-620.21266	497.60316	-738.94877	-623.81240	512.86241	-536.64311	-617.60214	504.67176	-703.60551	
3	0.02000000	-202.13045	501.95009	-452.12046	-172.69938	432.06010	-435.90931	-314.84866	106.68171	-453.90697	-376.96531	48.71376	-499.43624	-175.37415	48.06912	-415.10215	-141.88213	75.42894	-474.08865	-196.33592	497.94238	-804.12650	-174.10517	396.28210	-807.37332	-314.92817	101.72737	-764.33498	-381.44522	49.51712	-724.19942	-166.07498	46.75810	-807.35964	-139.55368	76.58986	-745.37312	-203.74930	324.00820	-430.52801	-245.07739	452.06767	-424.87769	-283.29519	342.94397	-421.79110	-257.93360	425.67741	-823.08811	-288.16143	309.29422	-812.36814	-502.56261	578.23526	-446.30100	-395.36048	592.07855	-452.78085	-363.11309	541.27424	-416.27665	-488.40022	464.20129	-434.37540	-369.57702	486.16916	-425.29075	-497.24594	571.83861	-808.71252	-360.79982	587.54366	-811.32788	-489.59362	456.16723	-822.64904	-352.79530	480.70948	-832.16650	-589.25789	608.64359	-504.35859	-777.69839	554.10161	-584.76745	-586.18843	605.41737	-757.60530	-773.83883	548.99393	-688.88317	-790.07304	1082.15779	-635.31942	-719.49505	1044.54397	-453.84551	-708.34927	1063.47755	-795.75230	-633.06910	1030.84795	-595.30597	-629.49069	1029.49544	-650.23977	-725.73315	774.46781	-360.70888	-748.07765	678.16828	-437.28894	-735.89475	683.72542	-347.55539	-589.33504	617.40111	-364.95444	-491.78024	575.52086	-395.46897	-513.61012	545.48278	-371.45035	-709.14810	807.41682	-897.57383	-762.26713	706.03518	-842.69328	-729.41855	718.57952	-912.73908	-584.53373	620.59356	-888.81243	-500.93428	585.68706	-862.61938	-520.26995	552.10367	-863.04190	-627.85887	499.76486	-508.74854	-620.30594	497.73806	-738.98373	-623.96775	512.98686	-536.65595	-617.78230	504.80119	-703.50946	
4	0.03000000	-202.16686	501.97072	-452.14250	-172.76072	432.11885	-435.99309	-315.31680	106.69494	-454.12009	-377.25476	48.48527	-499.65370	-175.56212	49.03427	-415.30850	-142.23730	76.62740	-474.10903	-196.50994	497.83706	-803.96155	-174.26164	396.38751	-807.37921	-315.14191	101.79518	-764.28264	-381.53749	49.37110	-724.15990	-166.17582	47.22055	-807.26979	-139.78639	77.03148	-745.48152	-204.03965	324.07175	-430.74300	-245.10889	452.15285	-424.97369	-283.49777	343.15189	-421.99801	-258.04961	425.78351	-823.06984	-288.28841	309.35614	-812.42307	-502.36692	577.01965	-446.37735	-395.37286	592.16470	-452.86121	-363.12573	541.36775	-416.32718	-488.33549	464.15380	-434.42828	-369.71042	486.09180	-425.60021	-497.31114	571.91394	-808.60137	-360.86148	587.57812	-811.27051	-489.67321	456.15703	-822.46685	-352.89318	480.71473	-832.03129	-589.37967	608.62036	-504.32845	-777.72747	554.05384	-584.71020	-586.44742	605.71001	-757.50559	-773.89548	549.01324	-688.89872	-789.76572	1082.12214	-634.88604	-719.14303	1044.65573	-453.47922	-707.88001	1063.64377	-795.35012	-632.51112	1031.04954	-595.01001	-628.89289	1029.81625	-649.90276	-725.62234	774.43942	-360.69790	-748.03576	678.32175	-437.33798	-735.90351	683.71489	-347.58652	-589.28994	617.40144	-365.01692	-491.72861	575.57028	-395.53115	-513.57612	545.56057	-371.61458	-708.98659	807.63230	-897.44464	-762.27106	706.31746	-842.50581	-729.46569	718.88007	-912.61951	-584.60100	620.79629	-888.71962	-501.00482	585.87324	-862.40590	-520.34946	552.26799	-862.98485	-627.85795	499.72761	-508.81841	-620.37685	497.98438	-739.05818	-624.06015	513.06676	-536.66678	-617.92467	504.99634	-703.47823	
5	0.04000000	-202.22965	501.96580	-452.17121	-172.86055	432.18525	-436.01949	-315.56196	106.77686	-454.20914	-377.48319	48.29346	-499.83327	-175.70405	49.80830	-415.53478	-142.47755	77.55142	-474.17055	-196.68508	497.74053	-803.84329	-174.39653	396.46473	-807.41271	-315.31783	101.80563	-764.20302	-381.62719	49.25044	-724.13792	-166.26547	47.64390	-807.29076	-140.01255	77.41490	-745.55915	-204.32209	324.05584	-430.91411	-245.17934	452.29959	-425.08857	-283.69546	343.31956	-422.15782	-258.15963	425.88218	-823.04689	-288.43909	309.50738	-812.60744	-502.20371	576.29418	-446.31861	-395.43939	592.23069	-452.90247	-363.08255	541.37989	-416.25646	-488.35696	464.07777	-434.42725	-369.68589	486.08589	-425.63910	-497.42755	572.08276	-808.64544	-360.96604	587.65113	-811.26851	-489.77656	456.23134	-822.39880	-353.05894	480.73320	-831.90952	-589.51970	608.60723	-504.24278	-777.80096	554.02103	-584.66916	-586.60938	606.00851	-757.62486	-773.98297	548.96540	-688.87629	-789.26839	1082.13382	-634.55859	-718.66648	1044.76626	-453.12857	-707.13769	1063.87644	-794.96768	-631.82375	1031.27841	-594.67166	-628.15166	1030.12159	-649.69840	-725.49322	774.42941	-360.64355	-748.05721	678.24000	-437.32615	-735.88688	683.68337	-347.58364	-589.22362	617.43101	-365.03177	-491.64318	575.66035	-395.60661	-513.48765	545.63567	-371.64772	-708.77066	807.92409	-897.42774	-762.23584	706.64128	-842.47838	-729.44188	719.23617	-912.58836	-584.61702	621.04106	-888.71343	-501.05578	586.09177	-862.17609	-520.40622	552.43538	-862.92465	-627.85024	499.71284	-508.90622	-620.44279	498.20180	-739.15025	-624.16885	513.16437	-536.59535	-618.05225	505.06487	-703.53898	
6	0.05000000	-202.27909	502.01082	-452.19276	-172.98001	432.22299	-436.03251	-315.74673	106.78399	-454.31293	-377.64340	48.13683	-499.97474	-175.85143	50.37606	-415.63456	-142.66775	78.21382	-474.32823	-196.85034	497.75748	-803.86087	-174.53979	396.48910	-807.42751	-315.45916	101.80091	-764.13696	-381.69490	49.17677	-724.15804	-166.31874	48.01436	-807.46408	-140.16852	77.74186	-745.57293	-204.51739	324.03378	-430.98799	-245.29629	452.43059	-425.17079	-283.82482	343.41470	-422.20497	-258.28069	425.97029	-823.11214	-288.62424	309.61624	-812.69345	-502.16431	576.22733	-446.22260	-395.61617	592.22199	-452.80990	-363.06826	541.29926	-416.15442	-488.49061	464.10697	-434.33538	-369.62106	486.12752	-425.53890	-497.58131	572.24664	-808.66805	-361.11427	587.76872	-811.29048	-489.89697	456.36613	-822.48667	-353.24649	480.87836	-831.97478	-589.66036	608.58125	-504.18697	-777.88936	554.03257	-584.66219	-586.77606	606.24653	-757.86312	-774.09460	548.89741	-688.82908	-788.55046	1082.19824	-634.33215	-718.09112	1044.83037	-452.84804	-706.10083	1064.19922	-794.74042	-631.00425	1031.51500	-594.29993	-627.23650	1030.40411	-649.47987	-725.33763	774.45759	-360.53692	-748.24910	677.76803	-437.21704	-735.82322	683.67985	-347.54205	-589.15560	617.49582	-365.01619	-491.57749	575.76505	-395.76799	-513.32336	545.77874	-371.56123	-708.51304	808.27075	-897.48125	-762.17882	707.00069	-842.49126	-729.34276	719.62021	-912.62804	-584.60776	621.26085	-888.73941	-501.11286	586.33090	-862.01440	-520.46748	552.67461	-862.91110	-627.85561	499.70617	-509.02002	-620.55781	498.36167	-739.26864	-624.32306	513.27983	-536.50687	-618.23463	505.04057	-703.63714	
